<svg width="976" height="242" viewBox="0 0 976 242" fill="none" xmlns="http://www.w3.org/2000/svg">
<path d="M28.8 186.182C26.6667 186.182 25.6 185.115 25.6 182.982V49.6058H3.20002C1.06668 49.6058 1.52588e-05 48.5392 1.52588e-05 46.4058V18.7578C1.52588e-05 16.6245 1.06668 15.5578 3.20002 15.5578H90.624C92.7574 15.5578 93.824 16.6245 93.824 18.7578V46.4058C93.824 48.5392 92.7574 49.6058 90.624 49.6058H68.224V182.982C68.224 185.115 67.1574 186.182 65.024 186.182H28.8ZM127.7 186.182C125.567 186.182 124.5 185.115 124.5 182.982V48.5818C124.5 46.4485 125.567 45.3818 127.7 45.3818H147.156C148.777 45.3818 150.185 46.1072 151.38 47.5578L163.924 62.0218L177.876 46.9178C178.815 45.8938 180.009 45.3818 181.46 45.3818H195.284C197.417 45.3818 198.484 46.4485 198.484 48.5818V76.1018C198.484 77.4672 198.399 78.4058 198.228 78.9178C198.057 79.3445 197.588 79.8138 196.82 80.3258L165.076 103.75V182.982C165.076 185.115 164.009 186.182 161.876 186.182H127.7ZM245.75 186.182C243.787 186.182 242.081 185.456 240.63 184.006L215.03 158.406C213.579 157.04 212.854 155.334 212.854 153.286V78.2778C212.854 76.2298 213.579 74.5232 215.03 73.1578L240.63 47.5578C242.081 46.1072 243.787 45.3818 245.75 45.3818H314.23C316.363 45.3818 317.43 46.4485 317.43 48.5818V182.982C317.43 185.115 316.363 186.182 314.23 186.182H287.606C286.497 186.182 285.643 185.968 285.046 185.542C284.534 185.115 283.937 184.603 283.254 184.006L276.854 177.606L270.454 184.006C269.089 185.456 267.382 186.182 265.334 186.182H245.75ZM260.726 156.358H269.686C272.417 156.358 274.294 155.803 275.318 154.694C276.342 153.584 276.854 151.622 276.854 148.806V75.2058H260.726C257.91 75.2058 255.99 75.7605 254.966 76.8698C253.942 77.9792 253.43 79.9418 253.43 82.7578V148.806C253.43 151.622 253.942 153.584 254.966 154.694C255.99 155.803 257.91 156.358 260.726 156.358ZM350.45 186.182C348.317 186.182 347.25 185.115 347.25 182.982V48.5818C347.25 46.4485 348.317 45.3818 350.45 45.3818H384.498C386.631 45.3818 387.698 46.4485 387.698 48.5818V182.982C387.698 185.115 386.631 186.182 384.498 186.182H350.45ZM349.81 34.7578C348.103 34.7578 347.25 33.9045 347.25 32.1978V15.9418C347.25 14.2352 348.103 13.3818 349.81 13.3818H385.394C386.93 13.3818 387.698 14.2352 387.698 15.9418V32.1978C387.698 33.9045 386.93 34.7578 385.394 34.7578H349.81ZM420.7 186.182C418.567 186.182 417.5 185.115 417.5 182.982V48.5818C417.5 46.4485 418.567 45.3818 420.7 45.3818H489.18C491.143 45.3818 492.849 46.1072 494.3 47.5578L519.9 73.1578C521.351 74.5232 522.076 76.2298 522.076 78.2778V182.982C522.076 185.115 521.009 186.182 518.876 186.182H484.7C482.567 186.182 481.5 185.115 481.5 182.982V83.3978C481.5 79.3872 479.495 77.3818 475.484 77.3818H458.076V182.982C458.076 185.115 457.009 186.182 454.876 186.182H420.7Z" fill="black"/>
<path d="M557.095 186.182V0H585.185V162H669.549V186.182H557.095ZM758.231 189C745.14 189 733.716 186 723.958 180C714.201 174 706.625 165.606 701.231 154.818C695.837 144.03 693.14 131.424 693.14 117C693.14 102.515 695.837 89.8485 701.231 79C706.625 68.1515 714.201 59.7273 723.958 53.7273C733.716 47.7273 745.14 44.7273 758.231 44.7273C771.322 44.7273 782.746 47.7273 792.504 53.7273C802.261 59.7273 809.837 68.1515 815.231 79C820.625 89.8485 823.322 102.515 823.322 117C823.322 131.424 820.625 144.03 815.231 154.818C809.837 165.606 802.261 174 792.504 180C782.746 186 771.322 189 758.231 189ZM758.322 166.182C766.807 166.182 773.837 163.939 779.413 159.455C784.989 154.97 789.11 149 791.776 141.545C794.504 134.091 795.867 125.879 795.867 116.909C795.867 108 794.504 99.8182 791.776 92.3636C789.11 84.8485 784.989 78.8182 779.413 74.2727C773.837 69.7273 766.807 67.4545 758.322 67.4545C749.776 67.4545 742.685 69.7273 737.049 74.2727C731.473 78.8182 727.322 84.8485 724.595 92.3636C721.928 99.8182 720.595 108 720.595 116.909C720.595 125.879 721.928 134.091 724.595 141.545C727.322 149 731.473 154.97 737.049 159.455C742.685 163.939 749.776 166.182 758.322 166.182ZM912.208 241.455C901.117 241.455 891.572 240 883.572 237.091C875.632 234.182 869.148 230.333 864.117 225.545C859.087 220.758 855.329 215.515 852.845 209.818L876.208 200.182C877.845 202.848 880.026 205.667 882.754 208.636C885.542 211.667 889.299 214.242 894.026 216.364C898.814 218.485 904.966 219.545 912.481 219.545C922.784 219.545 931.299 217.03 938.026 212C944.754 207.03 948.117 199.091 948.117 188.182V160.727H946.39C944.754 163.697 942.39 167 939.299 170.636C936.269 174.273 932.087 177.424 926.754 180.091C921.42 182.758 914.481 184.091 905.935 184.091C894.905 184.091 884.966 181.515 876.117 176.364C867.329 171.152 860.36 163.485 855.208 153.364C850.117 143.182 847.572 130.667 847.572 115.818C847.572 100.97 850.087 88.2424 855.117 77.6364C860.208 67.0303 867.178 58.9091 876.026 53.2727C884.875 47.5758 894.905 44.7273 906.117 44.7273C914.784 44.7273 921.784 46.1818 927.117 49.0909C932.451 51.9394 936.602 55.2727 939.572 59.0909C942.602 62.9091 944.935 66.2727 946.572 69.1818H948.572V46.5455H975.208V189.273C975.208 201.273 972.42 211.121 966.845 218.818C961.269 226.515 953.723 232.212 944.208 235.909C934.754 239.606 924.087 241.455 912.208 241.455ZM911.935 161.545C919.754 161.545 926.36 159.727 931.754 156.091C937.208 152.394 941.329 147.121 944.117 140.273C946.966 133.364 948.39 125.091 948.39 115.455C948.39 106.061 946.996 97.7879 944.208 90.6364C941.42 83.4849 937.329 77.9091 931.935 73.9091C926.542 69.8485 919.875 67.8182 911.935 67.8182C903.754 67.8182 896.935 69.9394 891.481 74.1818C886.026 78.3636 881.905 84.0606 879.117 91.2727C876.39 98.4849 875.026 106.545 875.026 115.455C875.026 124.606 876.42 132.636 879.208 139.545C881.996 146.455 886.117 151.848 891.572 155.727C897.087 159.606 903.875 161.545 911.935 161.545Z" fill="#2FFF00"/>
</svg>
