<svg width="888" height="216" viewBox="0 0 888 216" fill="none" xmlns="http://www.w3.org/2000/svg">
<path d="M28.7997 172.8C26.6663 172.8 25.5997 171.733 25.5997 169.6V36.224H3.19965C1.06632 36.224 -0.000350952 35.1573 -0.000350952 33.024V5.37599C-0.000350952 3.24266 1.06632 2.17599 3.19965 2.17599H90.6237C92.757 2.17599 93.8237 3.24266 93.8237 5.37599V33.024C93.8237 35.1573 92.757 36.224 90.6237 36.224H68.2237V169.6C68.2237 171.733 67.157 172.8 65.0237 172.8H28.7997ZM127.7 172.8C125.566 172.8 124.5 171.733 124.5 169.6V35.2C124.5 33.0667 125.566 32 127.7 32H147.156C148.777 32 150.185 32.7253 151.38 34.176L163.924 48.64L177.876 33.536C178.814 32.512 180.009 32 181.46 32H195.284C197.417 32 198.484 33.0667 198.484 35.2V62.72C198.484 64.0853 198.398 65.024 198.228 65.536C198.057 65.9627 197.588 66.432 196.82 66.944L165.076 90.368V169.6C165.076 171.733 164.009 172.8 161.876 172.8H127.7ZM245.75 172.8C243.787 172.8 242.08 172.075 240.63 170.624L215.03 145.024C213.579 143.659 212.854 141.952 212.854 139.904V64.896C212.854 62.848 213.579 61.1413 215.03 59.776L240.63 34.176C242.08 32.7253 243.787 32 245.75 32H314.23C316.363 32 317.43 33.0667 317.43 35.2V169.6C317.43 171.733 316.363 172.8 314.23 172.8H287.606C286.496 172.8 285.643 172.587 285.046 172.16C284.534 171.733 283.936 171.221 283.254 170.624L276.854 164.224L270.454 170.624C269.088 172.075 267.382 172.8 265.334 172.8H245.75ZM260.726 142.976H269.686C272.416 142.976 274.294 142.421 275.318 141.312C276.342 140.203 276.854 138.24 276.854 135.424V61.824H260.726C257.91 61.824 255.99 62.3787 254.966 63.488C253.942 64.5973 253.43 66.56 253.43 69.376V135.424C253.43 138.24 253.942 140.203 254.966 141.312C255.99 142.421 257.91 142.976 260.726 142.976ZM350.45 172.8C348.316 172.8 347.25 171.733 347.25 169.6V35.2C347.25 33.0667 348.316 32 350.45 32H384.498C386.631 32 387.698 33.0667 387.698 35.2V169.6C387.698 171.733 386.631 172.8 384.498 172.8H350.45ZM349.81 21.376C348.103 21.376 347.25 20.5227 347.25 18.816V2.56C347.25 0.853333 348.103 0 349.81 0H385.394C386.93 0 387.698 0.853333 387.698 2.56V18.816C387.698 20.5227 386.93 21.376 385.394 21.376H349.81ZM420.7 172.8C418.566 172.8 417.5 171.733 417.5 169.6V35.2C417.5 33.0667 418.566 32 420.7 32H489.18C491.142 32 492.849 32.7253 494.3 34.176L519.9 59.776C521.35 61.1413 522.076 62.848 522.076 64.896V169.6C522.076 171.733 521.009 172.8 518.876 172.8H484.7C482.566 172.8 481.5 171.733 481.5 169.6V70.016C481.5 66.0053 479.494 64 475.484 64H458.076V169.6C458.076 171.733 457.009 172.8 454.876 172.8H420.7Z" fill="white"/>
<path d="M555.2 172.8C553.066 172.8 552 171.733 552 169.6V5.37599C552 3.24266 553.066 2.17599 555.2 2.17599H591.424C593.557 2.17599 594.624 3.24266 594.624 5.37599V138.624H626.88C629.013 138.624 630.08 139.691 630.08 141.824V169.6C630.08 171.733 629.013 172.8 626.88 172.8H555.2ZM682.5 172.8C680.537 172.8 678.83 172.075 677.38 170.624L651.78 145.024C650.329 143.659 649.604 141.952 649.604 139.904V64.896C649.604 62.848 650.329 61.1413 651.78 59.776L677.38 34.176C678.83 32.7253 680.537 32 682.5 32H721.284C723.332 32 725.038 32.7253 726.404 34.176L752.004 59.776C753.454 61.1413 754.18 62.848 754.18 64.896V139.904C754.18 141.952 753.454 143.659 752.004 145.024L726.404 170.624C725.038 172.075 723.332 172.8 721.284 172.8H682.5ZM697.476 142.976H706.436C709.166 142.976 711.044 142.421 712.068 141.312C713.092 140.203 713.604 138.24 713.604 135.424V69.376C713.604 66.56 713.092 64.5973 712.068 63.488C711.044 62.3787 709.166 61.824 706.436 61.824H697.476C694.66 61.824 692.74 62.3787 691.716 63.488C690.692 64.5973 690.18 66.56 690.18 69.376V135.424C690.18 138.24 690.692 140.203 691.716 141.312C692.74 142.421 694.66 142.976 697.476 142.976ZM820.096 215.424C817.962 215.424 816.896 214.357 816.896 212.224V192.256C816.896 190.549 817.536 189.611 818.816 189.44L837.504 184.704L850.816 177.664C852.096 176.981 852.736 175.659 852.736 173.696V152.704L840.704 163.84C839.253 165.291 837.546 166.016 835.584 166.016L813.824 166.784C811.861 166.784 810.154 166.101 808.704 164.736L785.28 141.184C783.829 139.819 783.104 138.112 783.104 136.064V64.896C783.104 62.848 783.829 61.1413 785.28 59.776L810.88 34.176C812.33 32.7253 814.037 32 816 32H884.48C886.613 32 887.68 33.0667 887.68 35.2V189.056C887.68 191.36 886.954 193.067 885.504 194.176L868.48 205.056L846.976 214.016C845.696 214.528 844.714 214.869 844.032 215.04C843.434 215.296 842.41 215.424 840.96 215.424H820.096ZM830.976 139.136H839.936C842.666 139.136 844.544 138.581 845.568 137.472C846.592 136.363 847.104 134.4 847.104 131.584V61.824H830.976C828.16 61.824 826.24 62.3787 825.216 63.488C824.192 64.5973 823.68 66.56 823.68 69.376V131.584C823.68 134.4 824.192 136.363 825.216 137.472C826.24 138.581 828.16 139.136 830.976 139.136Z" fill="#22C55E"/>
</svg>
